<?xml version="1.0" encoding="utf-8" standalone="yes"?>
<!DOCTYPE svg PUBLIC "-//W3C//DTD SVG 1.1//EN" "http://www.w3.org/Graphics/SVG/1.1/DTD/svg11.dtd">
<svg width="540" height="480" viewBox="0 0 540 480" style="fill:none;stroke:none;fill-rule:evenodd;clip-rule:evenodd;stroke-linecap:round;stroke-linejoin:round;stroke-miterlimit:1.5;" version="1.1" xmlns="http://www.w3.org/2000/svg" xmlns:xlink="http://www.w3.org/1999/xlink"><style class="text-font-style fontImports" data-font-family="Roboto">@import url('https://fonts.googleapis.com/css2?family=Roboto:wght@400;700&amp;display=block');</style><g id="items" style="isolation: isolate"><g id="blend" style="mix-blend-mode: normal"><g id="g-root-sy_-1_line_1qegow81aeavwn-fill" data-item-order="-34474" transform="translate(218.33981323242188, 407.2689208984375)"></g><g id="g-root-sy_-1_line_1_1lyn6rs1aeawow-fill" data-item-order="-34470" transform="translate(313.2197265625, 241.408935546875)"></g><g id="g-root-sy_-1_line_2_1d306iw1aeaxhl-fill" data-item-order="-34466" transform="translate(170, 241.62890625)"></g><g id="g-root-tx_ciclodea_qvad541ae11je-fill" data-item-order="0" transform="translate(116, 38)"><g id="tx_ciclodea_qvad541ae11je-fill" stroke="none" fill="#484848"><g><text style="font: bold 25px Roboto, sans-serif; white-space: pre;" font-weight="bold" font-size="25px" font-family="Roboto, sans-serif"><tspan x="17.63" y="43" dominant-baseline="ideographic">Ciclo de Autossuficiência</tspan></text></g></g></g><g id="g-root-tx_noaparec_1ur5zwo1ae10y0-fill" data-item-order="0" transform="translate(200, 170)"><g id="tx_noaparec_1ur5zwo1ae10y0-fill" stroke="none" fill="#484848"><g><text style="font: 20px Roboto, sans-serif; white-space: pre;" font-size="20px" font-family="Roboto, sans-serif"><tspan x="15.14" y="34" dominant-baseline="ideographic">Não Aparecer</tspan></text></g></g></g><g id="g-root-ic_stab_m980zs1aegjra-fill" data-item-order="0" transform="translate(242, 206)"></g><g id="g-root-ic_forb_1d306iw1aeaxhm-fill" data-item-order="0" transform="translate(158, 350)"></g><g id="g-root-ic_2_1uua70o1aejbb7-fill" data-item-order="0" transform="translate(326, 350)"></g><g id="g-root-tx_nodepend_147ztoo1adznye-fill" data-item-order="0" transform="translate(14, 374)"><g id="tx_nodepend_147ztoo1adznye-fill" stroke="none" fill="#484848"><g><text style="font: 20px Roboto, sans-serif; white-space: pre;" font-size="20px" font-family="Roboto, sans-serif"><tspan x="13.2" y="34" dominant-baseline="ideographic">Não Depender </tspan><tspan x="26.42" y="58" dominant-baseline="ideographic">de Indicação</tspan></text></g></g></g><g id="g-root-tx_noimpuls_13zvnk81ae11j7-fill" data-item-order="0" transform="translate(386, 374)"><g id="tx_noimpuls_13zvnk81ae11j7-fill" stroke="none" fill="#484848"><g><text style="font: 20px Roboto, sans-serif; white-space: pre;" font-size="20px" font-family="Roboto, sans-serif"><tspan x="12" y="34" dominant-baseline="ideographic">Não </tspan><tspan x="12" y="58" dominant-baseline="ideographic">Impulsionar</tspan></text></g></g></g><g id="g-root-sy_-1_line_1qegow81aeavwn-stroke" data-item-order="-34474" transform="translate(218.33981323242188, 407.2689208984375)"><g id="sy_-1_line_1qegow81aeavwn-stroke" fill="none" stroke-linecap="round" stroke-linejoin="round" stroke-miterlimit="4" stroke="#484848" stroke-width="2"><g><path d="M 11.740143 12.051099C 25.380143 19.501099 41.020143 23.731099 57.660143 23.731099C 75.010143 23.731099 92.700143 18.721099 107.150143 10.001099"></path><path d="M 20.040143 8.801099L 11.340143 11.701099L 14.340143 20.401099" stroke-dasharray="none"></path></g></g></g><g id="g-root-sy_-1_line_1_1lyn6rs1aeawow-stroke" data-item-order="-34470" transform="translate(313.2197265625, 241.408935546875)"><g id="sy_-1_line_1_1lyn6rs1aeawow-stroke" fill="none" stroke-linecap="round" stroke-linejoin="round" stroke-miterlimit="4" stroke="#484848" stroke-width="2"><g><path d="M 58.750244 91.211099C 57.900244 56.361099 38.480244 26.111099 10.000244 10.001099"></path><path d="M 51.800244 85.601099L 58.700244 91.701099L 64.700244 84.801099" stroke-dasharray="none"></path></g></g></g><g id="g-root-sy_-1_line_2_1d306iw1aeaxhl-stroke" data-item-order="-34466" transform="translate(170, 241.62890625)"><g id="sy_-1_line_2_1d306iw1aeaxhl-stroke" fill="none" stroke-linecap="round" stroke-linejoin="round" stroke-miterlimit="4" stroke="#484848" stroke-width="2"><g><path d="M 56.6 11.041077C 28.68 27.831077 10 58.421077 10 93.371077C 10 93.951077 10.01 94.541077 10.02 95.121077"></path><path d="M 55.3 19.841077L 57.1 10.841077L 48.1 8.941077" stroke-dasharray="none"></path></g></g></g><g id="g-root-tx_ciclodea_qvad541ae11je-stroke" data-item-order="0" transform="translate(116, 38)"></g><g id="g-root-tx_noaparec_1ur5zwo1ae10y0-stroke" data-item-order="0" transform="translate(200, 170)"></g><g id="g-root-ic_stab_m980zs1aegjra-stroke" data-item-order="0" transform="translate(242, 206)"><g id="ic_stab_m980zs1aegjra-stroke" fill="none" stroke-linecap="round" stroke-linejoin="round" stroke-miterlimit="4" stroke="#969696" stroke-width="2"><g><path d="M 19.60734 27.291861C 25.407341 21.491859 34.607399 21.491859 40.207397 27.29188C 45.8074 33.091801 46.007401 42.291801 40.207397 47.8918M 32.4072 52.091801C 27.80722 52.8918 23.00724 51.491798 19.607239 48.091801C 16.207241 44.691799 14.80724 39.891998 15.607241 35.292M 10 10M 53 14.396L 40.1628 27.23316M 10 10M 42.599998 14.396L 53 24.796021M 15 22.59594L 44.599998 52.395802"></path></g></g></g><g id="g-root-ic_forb_1d306iw1aeaxhm-stroke" data-item-order="0" transform="translate(158, 350)"><g id="ic_forb_1d306iw1aeaxhm-stroke" fill="none" stroke-linecap="round" stroke-linejoin="round" stroke-miterlimit="4" stroke="#3cc583" stroke-width="2"><g><path d="M 11 34C 11 46.702549 21.297451 57 34 57C 46.702549 57 57 46.702549 57 34C 57 21.297451 46.702549 11 34 11C 21.297451 11 11 21.297451 11 34M 17.24 18.24L 49.759998 50.759998M 30 19C 30 21.209139 31.790861 23 34 23C 36.209137 23 38 21.209139 38 19C 38 16.790861 36.209137 15 34 15C 31.790861 15 30 16.790861 30 19M 37.739998 38.739998C 36.998444 40.802284 37.296272 43.095554 38.540001 44.900002L 41.779999 48.700001C 42.497868 49.545006 42.394852 50.811954 41.549904 51.529884C 40.704952 52.247814 39.437996 52.144897 38.720001 51.300003L 35.5 47.5C 34.60828 46.451698 34.002083 45.191078 33.739998 43.84L 33.080002 40.440002L 30.860001 43.040001C 30.372305 43.607494 30.053564 44.300407 29.940001 45.040001L 29.219999 49.380001C 29.04327 50.484573 28.00457 51.236732 26.900002 51.060001C 25.795431 50.88327 25.04327 49.84457 25.220001 48.740002L 26 44.32C 26.246735 42.880554 26.875263 41.533707 27.82 40.419998L 31 36.720001C 31.226149 35.290108 31.359758 33.847107 31.4 32.400002M 28.139999 29.139999C 26.56488 30.535231 24.668234 31.517914 22.619999 32C 21.538673 32.211609 20.832176 33.257942 21.040001 34.34C 21.122868 34.874065 21.418352 35.35186 21.859154 35.664566C 22.299957 35.977272 22.848553 36.098267 23.380001 36L 24.82 35.720001C 27.204889 35.151535 29.351971 33.8507 30.959999 32M 37 32.16L 38.080002 33.02C 39.080078 33.813946 39.875572 34.835747 40.400002 36L 41.16 37.739998C 41.370819 38.229156 41.768051 38.614006 42.263634 38.809238C 42.759216 39.004467 43.312202 38.993942 43.799999 38.779999C 44.289154 38.569183 44.674007 38.171951 44.86924 37.676369C 45.064468 37.180786 45.053944 36.627796 44.84 36.139999L 44 34.459999C 43.22913 32.723564 42.056984 31.194977 40.580002 30L 38 27.879999C 37.290886 27.311089 36.409122 27.00071 35.5 27L 32 27"></path></g></g></g><g id="g-root-ic_2_1uua70o1aejbb7-stroke" data-item-order="0" transform="translate(326, 350)"><g id="ic_2_1uua70o1aejbb7-stroke" fill="none" stroke-linecap="round" stroke-linejoin="round" stroke-miterlimit="4" stroke="#e55753" stroke-width="2"><g><path d="M 32.486 34.648399C 34.529999 35.057198 35.756599 36.896999 35.347603 38.736801C 34.938801 40.576401 32.894798 42.007401 30.850599 41.5984M 10 10M 22.5 40.200001L 30.9 41.599998C 32.900002 42 34.099998 43.799999 33.700001 45.599998C 33.299999 47.599998 31.5 48.799999 29.69998 48.400002L 20.9 47M 10 10M 18.5 12.6L 56.5 44M 10 10M 13.1 19.200001L 22.34376 25.90624M 10 10M 33.900002 34.599998L 53.099998 48.799999M 10 10M 11.5 55.400002L 14.7 44.400002C 13.9 43.599998 13.5 42.400002 13.3 41.200001L 12.7 36.200001C 12.3 32.599998 13.9 29.19998 16.700001 26.999981C 18.299999 25.79998 19.9 25.599979 21.5 25.79998L 33.5 27.79998C 35.5 28.19998 36.700001 29.999981 36.299999 31.799999C 35.900002 33.799999 34.099998 35 32.299999 34.599998L 22.700001 33M 27.29998 48L 28.5 55.400002M 29.920321 22.02968L 31.700001 20.25C 33.099998 18.85 35.299999 18.85 36.700001 20.25C 38.099998 21.65 38.099998 23.85 36.700001 25.25L 35.396797 26.55312"></path></g></g></g><g id="g-root-tx_nodepend_147ztoo1adznye-stroke" data-item-order="0" transform="translate(14, 374)"></g><g id="g-root-tx_noimpuls_13zvnk81ae11j7-stroke" data-item-order="0" transform="translate(386, 374)"></g></g></g></svg>