<?xml version="1.0" encoding="utf-8" standalone="yes"?>
<!DOCTYPE svg PUBLIC "-//W3C//DTD SVG 1.1//EN" "http://www.w3.org/Graphics/SVG/1.1/DTD/svg11.dtd">
<svg width="936" height="444" viewBox="0 0 936 444" style="fill:none;stroke:none;fill-rule:evenodd;clip-rule:evenodd;stroke-linecap:round;stroke-linejoin:round;stroke-miterlimit:1.5;" version="1.1" xmlns="http://www.w3.org/2000/svg" xmlns:xlink="http://www.w3.org/1999/xlink"><style class="text-font-style fontImports" data-font-family="Roboto">@import url('https://fonts.googleapis.com/css2?family=Roboto:wght@400;700&amp;display=block');</style><rect id="" x="0" y="0" width="936" height="444" style="fill: #2c2c2c;"></rect><g id="items" style="isolation: isolate"><g id="blend" style="mix-blend-mode: normal"><g id="g-root-tf_hx5jsg1r1e421-fill" data-item-order="-623376"><g id="tf_hx5jsg1r1e421-fill" stroke="none" fill="#2c2c2c"><g><path d="M 0 0L 936 0L 936 444L 0 444Z"></path></g></g></g><g id="g-root-cp_1_bubble-1_1uuwxo01r1pde2-fill" data-item-order="-309014" transform="translate(38, 122)"><g id="cp_1_bubble-1_1uuwxo01r1pde2-fill" stroke="none" fill="#54502f"><g><path d="M 202 58L 10 58C 10.000001 31.4903 10 10 10 10L 202 10.000046L 202 58ZM 202 70L 202 58L 10 58.000001L 10.000004 70L 202 70ZM 10 70L 10 118L 117.068 118C 142.719 118 170 118 195 112C 195 112 202 103 202 70L 10 70Z"></path></g></g></g><g id="g-root-cp_5_bubble-5_m7z9801r1qr5w-fill" data-item-order="-308990" transform="translate(38, 254)"><g id="cp_5_bubble-5_m7z9801r1qr5w-fill" stroke="none" fill="#60436d"><g><path d="M 202 58L 10 58C 10.000001 31.4903 10 10 10 10L 202 10.000046L 202 58ZM 202 70L 202 58L 10 58.000001L 10.000004 70L 202 70ZM 10 70L 10 118L 147.5 118C 157.734 118 175.637 117.3677 183 112L 194.5 102.5C 198 99 201.215 94.9087 201.549 87.8146C 201.785 82.7946 202 77.0268 202 72.6307L 202 70L 10 70Z"></path></g></g></g><g id="g-root-cp_2_bubble-2_de7o8g1r1qqyu-fill" data-item-order="-308960" transform="translate(254, 134)"><g id="cp_2_bubble-2_de7o8g1r1qqyu-fill" stroke="none" fill="#5c4938"><g><path d="M 202 58L 10 58C 10.000001 31.4903 10 10 10 10L 202 10.000046L 202 58ZM 202 70L 202 58L 10 58.000001L 10.000004 70L 202 70ZM 202 70L 202 118L 64.5 118C 54.2659 118 36.3634 117.3677 29 112L 17.5 102.5C 14 99 10.7851 94.9087 10.451 87.8146C 10.2146 82.7946 10 77.0268 10 72.6307L 10 70L 202 70Z"></path></g></g></g><g id="g-root-cp_3_bubble-3_4ml4g1r1qrk0-fill" data-item-order="-308932" transform="translate(470, 122)"><g id="cp_3_bubble-3_4ml4g1r1qrk0-fill" stroke="none" fill="#68403f"><g><path d="M 10.000004 70L 202 70.000063C 202 96.5097 202 118 202 118L 10 118L 10.000004 70ZM 202 70L 202 58L 10 58.000001L 10.000004 70L 202 70ZM 202 58L 202 10.000009L 94.9317 10C 70.4032 9.999998 45.9672 13.0082 22.171 18.9572L 19.0896 19.7276C 13.7476 21.0631 10.000003 25.8629 10.000002 31.3693L 10 58L 202 58Z"></path></g></g></g><g id="g-root-cp_4_bubble-4_hx5jsg1r1qrcy-fill" data-item-order="-308904" transform="translate(686, 134)"><g id="cp_4_bubble-4_hx5jsg1r1qrcy-fill" stroke="none" fill="#69425a"><g><path d="M 10.000004 70L 202 70.000063C 202 96.5097 202 118 202 118L 10 118L 10.000004 70ZM 202 70L 202 58L 10 58.000001L 10.000004 70L 202 70ZM 10 58L 10 10.000009L 117.068 10C 142.719 9.999998 170 9.999996 195 16C 195 16 202 25 202 58L 10 58Z"></path></g></g></g><g id="g-root-tx_componen_145i0kw1r1qqdo-fill" data-item-order="0" transform="translate(326, 38)"><g id="tx_componen_145i0kw1r1qqdo-fill" stroke="none" fill="#f4f4f4"><g><text style="font: bold 25px Roboto, sans-serif; white-space: pre;" font-weight="bold" font-size="25px" font-family="Roboto, sans-serif"><tspan x="11.8" y="43" dominant-baseline="ideographic">Componentes do curso</tspan></text></g></g></g><g id="g-root-tx_mdulos_7qyk01r1qryl-fill" data-item-order="0" transform="translate(92, 164)"><g id="tx_mdulos_7qyk01r1qryl-fill" stroke="none" fill="#ffe711"><g><text style="font: bold 20px Roboto, sans-serif; white-space: pre;" font-weight="bold" font-size="20px" font-family="Roboto, sans-serif"><tspan x="12.94" y="34" dominant-baseline="ideographic">Módulos</tspan></text></g></g></g><g id="g-root-tx_aulascur_18egar41r1s5c7-fill" data-item-order="0" transform="translate(290, 176)"><g id="tx_aulascur_18egar41r1s5c7-fill" stroke="none" fill="#f79438"><g><text style="font: bold 20px Roboto, sans-serif; white-space: pre;" font-weight="bold" font-size="20px" font-family="Roboto, sans-serif"><tspan x="12.19" y="34" dominant-baseline="ideographic">Aulas Curtas</tspan></text></g></g></g><g id="g-root-tx_pdfs_1q6z9f41r1s554-fill" data-item-order="0" transform="translate(536, 164)"><g id="tx_pdfs_1q6z9f41r1s554-fill" stroke="none" fill="#fb6762"><g><text style="font: bold 20px Roboto, sans-serif; white-space: pre;" font-weight="bold" font-size="20px" font-family="Roboto, sans-serif"><tspan x="16.43" y="34" dominant-baseline="ideographic">PDFs</tspan></text></g></g></g><g id="g-root-tx_checklis_m987e81r1s6q1-fill" data-item-order="0" transform="translate(728, 176)"><g id="tx_checklis_m987e81r1s6q1-fill" stroke="none" fill="#f366bb"><g><text style="font: bold 20px Roboto, sans-serif; white-space: pre;" font-weight="bold" font-size="20px" font-family="Roboto, sans-serif"><tspan x="16.95" y="34" dominant-baseline="ideographic">Checklists</tspan></text></g></g></g><g id="g-root-tx_planilha_dl2w6o1r1qpdy-fill" data-item-order="0" transform="translate(86, 296)"><g id="tx_planilha_dl2w6o1r1qpdy-fill" stroke="none" fill="#cb68f9"><g><text style="font: bold 20px Roboto, sans-serif; white-space: pre;" font-weight="bold" font-size="20px" font-family="Roboto, sans-serif"><tspan x="16.56" y="34" dominant-baseline="ideographic">Planilhas</tspan></text></g></g></g><g id="g-root-tf_hx5jsg1r1e421-stroke" data-item-order="-623376"></g><g id="g-root-cp_1_bubble-1_1uuwxo01r1pde2-stroke" data-item-order="-309014" transform="translate(38, 122)"><g id="cp_1_bubble-1_1uuwxo01r1pde2-stroke" fill="none" stroke-linecap="round" stroke-linejoin="round" stroke-miterlimit="4" stroke="#ffe711" stroke-width="2"><g><path d="M 202 58L 202 10.0001L 10.0001 10L 10 57.9999M 202 70L 202 58M 10 70L 10 58M 10 70L 10 118L 117.0683 118C 142.7191 118 170 118 195 112C 195 112 202 103 202 70"></path></g></g></g><g id="g-root-cp_5_bubble-5_m7z9801r1qr5w-stroke" data-item-order="-308990" transform="translate(38, 254)"><g id="cp_5_bubble-5_m7z9801r1qr5w-stroke" fill="none" stroke-linecap="round" stroke-linejoin="round" stroke-miterlimit="4" stroke="#cb68f9" stroke-width="2"><g><path d="M 202 58L 202 10.0001L 10.0001 10L 10 57.9999M 202 70L 202 58M 10 70L 10 58M 10 70L 10 118L 147.5 118C 157.7341 118 175.6366 117.3677 183 112L 194.5 102.5C 198 99 201.2149 94.9087 201.549 87.8146C 201.7854 82.7946 202 77.0268 202 72.6307L 202 70M 165.5 117C 178.5 115 181 109.5 184.5 100.5C 184.5 100.5 200 102 201.5 89"></path></g></g></g><g id="g-root-cp_2_bubble-2_de7o8g1r1qqyu-stroke" data-item-order="-308960" transform="translate(254, 134)"><g id="cp_2_bubble-2_de7o8g1r1qqyu-stroke" fill="none" stroke-linecap="round" stroke-linejoin="round" stroke-miterlimit="4" stroke="#f79438" stroke-width="2"><g><path d="M 202 58L 202 10.0001L 10.0001 10L 10 57.9999M 202 70L 202 58M 10 70L 10 58M 202 70L 202 118L 64.5 118C 54.2659 118 36.3634 117.3677 29 112L 17.5 102.5C 14 99 10.7851 94.9087 10.451 87.8146C 10.2146 82.7946 10 77.0268 10 72.6307L 10 70M 46.5 117C 33.5 115 31 109.5 27.5 100.5C 27.5 100.5 12 102 10.5 89"></path></g></g></g><g id="g-root-cp_3_bubble-3_4ml4g1r1qrk0-stroke" data-item-order="-308932" transform="translate(470, 122)"><g id="cp_3_bubble-3_4ml4g1r1qrk0-stroke" fill="none" stroke-linecap="round" stroke-linejoin="round" stroke-miterlimit="4" stroke="#fb6762" stroke-width="2"><g><path d="M 10 70L 10 118L 202 118L 202 70.0001M 202 70L 202 58M 10 70L 10 58M 202 58L 202 10L 94.9317 10C 70.4032 10 45.9672 13.0082 22.171 18.9572L 19.0896 19.7276C 13.7476 21.0631 10 25.8629 10 31.3693L 10 58M 91 10.000116C 74.0247 12.559216 48.9444 14.935516 29.5 27.000016C 29.5 27.000016 26.5 17.000016 17 20.500016"></path></g></g></g><g id="g-root-cp_4_bubble-4_hx5jsg1r1qrcy-stroke" data-item-order="-308904" transform="translate(686, 134)"><g id="cp_4_bubble-4_hx5jsg1r1qrcy-stroke" fill="none" stroke-linecap="round" stroke-linejoin="round" stroke-miterlimit="4" stroke="#f366bb" stroke-width="2"><g><path d="M 10 70L 10 118L 202 118L 202 70.0001M 202 70L 202 58M 10 70L 10 58M 10 58L 10 10L 117.0683 10C 142.7191 10 170 10 195 16C 195 16 202 25 202 58"></path></g></g></g><g id="g-root-tx_componen_145i0kw1r1qqdo-stroke" data-item-order="0" transform="translate(326, 38)"></g><g id="g-root-tx_mdulos_7qyk01r1qryl-stroke" data-item-order="0" transform="translate(92, 164)"></g><g id="g-root-tx_aulascur_18egar41r1s5c7-stroke" data-item-order="0" transform="translate(290, 176)"></g><g id="g-root-tx_pdfs_1q6z9f41r1s554-stroke" data-item-order="0" transform="translate(536, 164)"></g><g id="g-root-tx_checklis_m987e81r1s6q1-stroke" data-item-order="0" transform="translate(728, 176)"></g><g id="g-root-tx_planilha_dl2w6o1r1qpdy-stroke" data-item-order="0" transform="translate(86, 296)"></g></g></g></svg>