<?xml version="1.0" encoding="utf-8" standalone="yes"?>
<!DOCTYPE svg PUBLIC "-//W3C//DTD SVG 1.1//EN" "http://www.w3.org/Graphics/SVG/1.1/DTD/svg11.dtd">
<svg width="768" height="468" viewBox="0 0 768 468" style="fill:none;stroke:none;fill-rule:evenodd;clip-rule:evenodd;stroke-linecap:round;stroke-linejoin:round;stroke-miterlimit:1.5;" version="1.1" xmlns="http://www.w3.org/2000/svg" xmlns:xlink="http://www.w3.org/1999/xlink"><style class="text-font-style fontImports" data-font-family="Shantell Sans">@import url('https://fonts.googleapis.com/css2?family=Shantell+Sans:wght@300..800&amp;display=block');</style><rect id="" x="0" y="0" width="768" height="468" style="fill: #2c2c2c;"></rect><g id="items" style="isolation: isolate"><g id="blend" style="mix-blend-mode: normal"><g id="g-root-tf_93zne01cchury-fill" data-item-order="-539136"><g id="tf_93zne01cchury-fill" stroke="none" fill="#2c2c2c"><g><path d="M 0 0L 768 0L 768 468L 0 468Z"></path></g></g></g><g id="g-root-sy_-1_cu_4o68fc1cbzkzn-fill" data-item-order="-110586" transform="translate(326, 122)"><g id="sy_-1_cu_4o68fc1cbzkzn-fill" stroke="none" fill="#6b6b6b"><g><path d="M 65.766602 298C 80.754802 298 106.000002 233.529 106.000002 154C 106.000002 74.471 80.754802 10 65.766602 10C 80.775202 10.0075 92.941702 74.6668 92.941702 154C 92.941702 233.333 80.775202 297.992 65.766602 298ZM 65.765897 298C 80.774597 297.992 92.941097 233.333 92.941097 154C 92.941097 74.6668 80.774597 10.0075 65.765897 10L 51.957397 10C 66.060697 15.1659 77.199297 77.8539 77.199297 154C 77.199297 230.146 65.382597 292.834 51.279297 298L 65.765897 298ZM 77.2 154C 77.2 230.146 65.3833 292.834 51.28 298L 50.0615 298C 35.0734 298 10 233.529 10 154C 10 74.471 35.0734 10 50.0615 10C 50.6991 10 51.9581 10 51.9581 10C 66.0614 15.1659 77.2 77.8539 77.2 154Z"></path></g></g></g><g id="g-root-cr_0_cr-medium_1utna5k1cbzll8-fill" data-item-order="-110582" transform="translate(494, 230)"><g id="cr_0_cr-medium_1utna5k1cbzll8-fill" stroke="none" fill="#6b6b6b"><g><path d="M 10 46C 10 65.882251 26.117749 82 46 82C 65.882251 82 82 65.882251 82 46C 82 26.117749 65.882251 10 46 10C 26.117749 10 10 26.117749 10 46"></path></g></g></g><g id="g-root-sy_3_line_1qdts141cbzmdh-fill" data-item-order="-110575" transform="translate(242.10940551757812, 290)"></g><g id="g-root-cr_3_cr-small_1qdts141cbzmdi-fill" data-item-order="-110574" transform="translate(182, 320)"><g id="cr_3_cr-small_1qdts141cbzmdi-fill" stroke="none" fill="#60703f"><g><path d="M 10 40C 10.000002 56.568544 23.431459 70.000002 40.000002 70.000002C 56.568544 70.000002 70.000002 56.568544 70.000002 40.000002C 70.000002 23.431459 56.568544 10.000002 40.000002 10.000002C 23.431459 10.000002 10.000002 23.431459 10.000002 40.000002"></path></g></g></g><g id="g-root-sy_2_line_1hi6rs81cbzn67-fill" data-item-order="-110567" transform="translate(242, 266)"></g><g id="g-root-cr_2_cr-small_1d2d9ns1cbznyg-fill" data-item-order="-110566" transform="translate(182, 236)"><g id="cr_2_cr-small_1d2d9ns1cbznyg-fill" stroke="none" fill="#346778"><g><path d="M 10 40C 10.000002 56.568544 23.431459 70.000002 40.000002 70.000002C 56.568544 70.000002 70.000002 56.568544 70.000002 40.000002C 70.000002 23.431459 56.568544 10.000002 40.000002 10.000002C 23.431459 10.000002 10.000002 23.431459 10.000002 40.000002"></path></g></g></g><g id="g-root-sy_1_line_18n68mg1cbzlkx-fill" data-item-order="-110559" transform="translate(242, 182)"></g><g id="g-root-cr_1_cr-small_18n68mg1cbzlky-fill" data-item-order="-110558" transform="translate(182, 152)"><g id="cr_1_cr-small_18n68mg1cbzlky-fill" stroke="none" fill="#426397"><g><path d="M 10 40C 10.000002 56.568544 23.431459 70.000002 40.000002 70.000002C 56.568544 70.000002 70.000002 56.568544 70.000002 40.000002C 70.000002 23.431459 56.568544 10.000002 40.000002 10.000002C 23.431459 10.000002 10.000002 23.431459 10.000002 40.000002"></path></g></g></g><g id="g-root-tx_estratgi_1ur5k4o1ccdpmu-fill" data-item-order="0" transform="translate(116, 38)"><g id="tx_estratgi_1ur5k4o1ccdpmu-fill" stroke="none" fill="#f4f4f4"><g><text style="font: bold 25px &quot;Shantell Sans&quot;, cursive; white-space: pre;" font-weight="bold" font-size="25px" font-family="'Shantell Sans', cursive"><tspan x="11.79" y="45" dominant-baseline="ideographic">Estratégias de Marketing Inovadoras</tspan></text></g></g></g><g id="g-root-tx_semmostr_1cz92js1ccdmo4-fill" data-item-order="0" transform="translate(14, 158)"><g id="tx_semmostr_1cz92js1ccdmo4-fill" stroke="none" fill="#f4f4f4"><g><text style="font: 20px &quot;Shantell Sans&quot;, cursive; white-space: pre;" font-size="20px" font-family="'Shantell Sans', cursive"><tspan x="20.39" y="35" dominant-baseline="ideographic">Sem Mostrar o </tspan><tspan x="109.19" y="59" dominant-baseline="ideographic">Rosto</tspan></text></g></g></g><g id="g-root-ic_pers_1heg3l41cccavj-fill" data-item-order="0" transform="translate(194, 164)"></g><g id="g-root-tx_semfazer_1upwlyg1ccdngq-fill" data-item-order="0" transform="translate(62, 242)"><g id="tx_semfazer_1upwlyg1ccdngq-fill" stroke="none" fill="#f4f4f4"><g><text style="font: 20px &quot;Shantell Sans&quot;, cursive; white-space: pre;" font-size="20px" font-family="'Shantell Sans', cursive"><tspan x="15.66" y="35" dominant-baseline="ideographic">Sem Fazer </tspan><tspan x="51.94" y="59" dominant-baseline="ideographic">Vídeos</tspan></text></g></g></g><g id="g-root-ic_reel_1lse6g81cc3sp6-fill" data-item-order="0" transform="translate(194, 248)"></g><g id="g-root-ic_watc_zrj8dk1cbzmdn-fill" data-item-order="0" transform="translate(506, 242)"></g><g id="g-root-tx_atraircl_8ydn3c1ccdn2k-fill" data-item-order="0" transform="translate(578, 254)"><g id="tx_atraircl_8ydn3c1ccdn2k-fill" stroke="none" fill="#f4f4f4"><g><text style="font: 20px &quot;Shantell Sans&quot;, cursive; white-space: pre;" font-size="20px" font-family="'Shantell Sans', cursive"><tspan x="12" y="35" dominant-baseline="ideographic">Atrair Clientes</tspan></text></g></g></g><g id="g-root-tx_semimpul_zlx4x41ccdp8n-fill" data-item-order="0" transform="translate(38, 314)"><g id="tx_semimpul_zlx4x41ccdp8n-fill" stroke="none" fill="#f4f4f4"><g><text style="font: 20px &quot;Shantell Sans&quot;, cursive; white-space: pre;" font-size="20px" font-family="'Shantell Sans', cursive"><tspan x="100.83" y="35" dominant-baseline="ideographic">Sem </tspan><tspan x="22.56" y="59" dominant-baseline="ideographic">Impulsionar </tspan><tspan x="98.89" y="83" dominant-baseline="ideographic">Post</tspan></text></g></g></g><g id="g-root-ic_2_245rc1cc2h37-fill" data-item-order="0" transform="translate(194, 332)"></g><g id="g-root-tf_93zne01cchury-stroke" data-item-order="-539136"></g><g id="g-root-sy_-1_cu_4o68fc1cbzkzn-stroke" data-item-order="-110586" transform="translate(326, 122)"><g id="sy_-1_cu_4o68fc1cbzkzn-stroke" fill="none" stroke-linecap="round" stroke-linejoin="round" stroke-miterlimit="4" stroke="#2c2c2c" stroke-width="2"><g><path d="M 65.766602 298C 80.754802 298 106.000002 233.529 106.000002 154C 106.000002 74.471 80.754802 10 65.766602 10C 80.775202 10.0075 92.941702 74.6668 92.941702 154C 92.941702 233.3332 80.775202 297.9925 65.766602 298ZM 65.765897 298C 80.774597 297.9925 92.941097 233.3332 92.941097 154C 92.941097 74.6668 80.774597 10.0075 65.765897 10L 51.957397 10C 66.060697 15.1659 77.199297 77.8539 77.199297 154C 77.199297 230.1462 65.382597 292.8341 51.279297 298L 65.765897 298ZM 77.2 154C 77.2 230.1462 65.3833 292.8341 51.28 298L 50.0615 298C 35.0734 298 10 233.529 10 154C 10 74.471 35.0734 10 50.0615 10C 50.6991 10 51.9581 10 51.9581 10C 66.0614 15.1659 77.2 77.8539 77.2 154Z"></path></g></g></g><g id="g-root-cr_0_cr-medium_1utna5k1cbzll8-stroke" data-item-order="-110582" transform="translate(494, 230)"><g id="cr_0_cr-medium_1utna5k1cbzll8-stroke" fill="none" stroke-linecap="round" stroke-linejoin="round" stroke-miterlimit="4" stroke="#2c2c2c" stroke-width="2"><g><path d="M 10 46C 10 65.882251 26.117749 82 46 82C 65.882251 82 82 65.882251 82 46C 82 26.117749 65.882251 10 46 10C 26.117749 10 10 26.117749 10 46"></path></g></g></g><g id="g-root-sy_3_line_1qdts141cbzmdh-stroke" data-item-order="-110575" transform="translate(242.10940551757812, 290)"><g id="sy_3_line_1qdts141cbzmdh-stroke" fill="none" stroke-linecap="round" stroke-linejoin="round" stroke-miterlimit="4" stroke="#91bb39" stroke-width="2"><g><path d="M 254.08058 10.859985L 129.89058 69.999985L 10.00058 69.999985"></path><path d="M 251.50058 19.259985L 254.50058 10.659985L 245.90058 7.559985" stroke-dasharray="none"></path></g></g></g><g id="g-root-cr_3_cr-small_1qdts141cbzmdi-stroke" data-item-order="-110574" transform="translate(182, 320)"><g id="cr_3_cr-small_1qdts141cbzmdi-stroke" fill="none" stroke-linecap="round" stroke-linejoin="round" stroke-miterlimit="4" stroke="#2c2e29" stroke-width="2"><g><path d="M 10 40C 10.000002 56.568544 23.431459 70.000002 40.000002 70.000002C 56.568544 70.000002 70.000002 56.568544 70.000002 40.000002C 70.000002 23.431459 56.568544 10.000002 40.000002 10.000002C 23.431459 10.000002 10.000002 23.431459 10.000002 40.000002"></path></g></g></g><g id="g-root-sy_2_line_1hi6rs81cbzn67-stroke" data-item-order="-110567" transform="translate(242, 266)"><g id="sy_2_line_1hi6rs81cbzn67-stroke" fill="none" stroke-linecap="round" stroke-linejoin="round" stroke-miterlimit="4" stroke="#1fa9d7" stroke-width="2"><g><path d="M 248 10L 130 10L 10 10"></path><path d="M 242 16.5L 248.5 10L 242 3.5" stroke-dasharray="none"></path></g></g></g><g id="g-root-cr_2_cr-small_1d2d9ns1cbznyg-stroke" data-item-order="-110566" transform="translate(182, 236)"><g id="cr_2_cr-small_1d2d9ns1cbznyg-stroke" fill="none" stroke-linecap="round" stroke-linejoin="round" stroke-miterlimit="4" stroke="#292d2f" stroke-width="2"><g><path d="M 10 40C 10.000002 56.568544 23.431459 70.000002 40.000002 70.000002C 56.568544 70.000002 70.000002 56.568544 70.000002 40.000002C 70.000002 23.431459 56.568544 10.000002 40.000002 10.000002C 23.431459 10.000002 10.000002 23.431459 10.000002 40.000002"></path></g></g></g><g id="g-root-sy_1_line_18n68mg1cbzlkx-stroke" data-item-order="-110559" transform="translate(242, 182)"><g id="sy_1_line_18n68mg1cbzlkx-stroke" fill="none" stroke-linecap="round" stroke-linejoin="round" stroke-miterlimit="4" stroke="#4e88e6" stroke-width="2"><g><path d="M 254.19 69.14L 130 10L 10 10"></path><path d="M 246 72.4L 254.6 69.4L 251.6 60.7" stroke-dasharray="none"></path></g></g></g><g id="g-root-cr_1_cr-small_18n68mg1cbzlky-stroke" data-item-order="-110558" transform="translate(182, 152)"><g id="cr_1_cr-small_18n68mg1cbzlky-stroke" fill="none" stroke-linecap="round" stroke-linejoin="round" stroke-miterlimit="4" stroke="#2b2d31" stroke-width="2"><g><path d="M 10 40C 10.000002 56.568544 23.431459 70.000002 40.000002 70.000002C 56.568544 70.000002 70.000002 56.568544 70.000002 40.000002C 70.000002 23.431459 56.568544 10.000002 40.000002 10.000002C 23.431459 10.000002 10.000002 23.431459 10.000002 40.000002"></path></g></g></g><g id="g-root-tx_estratgi_1ur5k4o1ccdpmu-stroke" data-item-order="0" transform="translate(116, 38)"></g><g id="g-root-tx_semmostr_1cz92js1ccdmo4-stroke" data-item-order="0" transform="translate(14, 158)"></g><g id="g-root-ic_pers_1heg3l41cccavj-stroke" data-item-order="0" transform="translate(194, 164)"><g id="ic_pers_1heg3l41cccavj-stroke" fill="none" stroke-linecap="round" stroke-linejoin="round" stroke-miterlimit="4" stroke="#4f91fc" stroke-width="2"><g><path d="M 28 10.75L 12.25 10.75C 11.421573 10.75 10.75 11.421573 10.75 12.25L 10.75 43C 10.75 44.242641 11.75736 45.25 13 45.25L 17.5 45.25C 17.5 39.25 16.75 34 13.75 31C 19.734156 26.069647 22.834984 18.458523 22 10.75M 28 10.75L 43.75 10.75C 44.578426 10.75 45.25 11.421573 45.25 12.25L 45.25 43C 45.25 44.242641 44.242641 45.25 43 45.25L 38.5 45.25C 38.5 39.25 39.25 34 42.25 31C 36.265846 26.069647 33.165016 18.458523 34 10.75M 23.875 22.375C 23.875 24.653175 25.721827 26.5 28 26.5C 30.278175 26.5 32.125 24.653175 32.125 22.375C 32.125 20.096827 30.278175 18.25 28 18.25C 25.721827 18.25 23.875 20.096827 23.875 22.375M 30.25 45.25L 30.880001 37.75L 33.25 37.75L 33.25 33.25C 33.25 30.350506 30.899494 28.000002 28.000002 28.000002C 25.100506 28.000002 22.750002 30.350506 22.750002 33.25L 22.75 37.75L 25.119999 37.75L 25.75 45.25M 13.75 31L 10.75 31M 45.25 31L 42.25 31"></path></g></g></g><g id="g-root-tx_semfazer_1upwlyg1ccdngq-stroke" data-item-order="0" transform="translate(62, 242)"></g><g id="g-root-ic_reel_1lse6g81cc3sp6-stroke" data-item-order="0" transform="translate(194, 248)"><g id="ic_reel_1lse6g81cc3sp6-stroke" fill="none" stroke-linecap="round" stroke-linejoin="round" stroke-miterlimit="4" stroke="#1ac3fb" stroke-width="2"><g><path d="M 21.25 22.75C 21.25 29.377417 26.622583 34.75 33.25 34.75C 39.877419 34.75 45.25 29.377417 45.25 22.75C 45.25 16.122583 39.877419 10.75 33.25 10.75C 26.622583 10.75 21.25 16.122583 21.25 22.75ZM 25.313499 31.75L 14.5 31.75C 12.428932 31.75 10.75 33.428932 10.75 35.5C 10.75 37.571068 12.428932 39.25 14.5 39.25L 40.75 39.25C 42.406857 39.25 43.75 40.593143 43.75 42.25C 43.75 43.906857 42.406857 45.25 40.75 45.25L 25.75 45.25M 31 22.75C 31 23.992641 32.007362 25 33.25 25C 34.492641 25 35.5 23.992641 35.5 22.75C 35.5 21.50736 34.492641 20.5 33.25 20.5C 32.007362 20.5 31 21.50736 31 22.75ZM 35.258499 17.931999L 36.699997 14.5L 36.699997 14.5C 34.483063 13.63644 32.024731 13.625217 29.800001 14.4685L 29.799999 14.452L 31.2355 17.902C 32.522388 17.370543 33.968006 17.373781 35.252502 17.910999ZM 28.75 20.74L 25 19.299999L 25 19.299999C 24.134727 21.516611 24.123501 23.97558 24.9685 26.200001L 24.9505 26.200001L 28.5835 24.765999C 27.980509 23.477911 28.042633 21.976858 28.750002 20.743ZM 31.24 27.25L 29.799999 31L 29.799999 31C 32.012138 31.861061 34.46471 31.872814 36.685001 31.033001L 36.685001 31.0495L 35.2495 27.4165C 33.963169 28.017916 32.464645 27.955803 31.232498 27.249998ZM 37.75 24.761499L 41.5 26.200001L 41.5 26.200001C 42.363758 23.983192 42.375511 21.524967 41.532997 19.299999L 41.548 19.299999L 37.9165 20.7355C 38.518715 22.023226 38.456596 23.52346 37.75 24.757Z"></path></g></g></g><g id="g-root-ic_watc_zrj8dk1cbzmdn-stroke" data-item-order="0" transform="translate(506, 242)"><g id="ic_watc_zrj8dk1cbzmdn-stroke" fill="none" stroke-linecap="round" stroke-linejoin="round" stroke-miterlimit="4" stroke="#b7b7b7" stroke-width="2"><g><path d="M 15.5 43.5C 15.5 45.985283 17.514719 48 20 48C 22.485281 48 24.5 45.985283 24.5 43.5C 24.5 41.014717 22.485281 39 20 39C 17.514719 39 15.5 41.014717 15.5 43.5ZM 29 57C 27.950926 52.885952 24.245701 50.006985 20 50.006985C 15.7543 50.006985 12.049074 52.885952 11 57M 43.5 43.5C 43.5 45.985283 45.514717 48 48 48C 50.485283 48 52.5 45.985283 52.5 43.5C 52.5 41.014717 50.485283 39 48 39C 45.514717 39 43.5 41.014717 43.5 43.5ZM 39 57C 40.049076 52.885952 43.754299 50.006985 48 50.006985C 52.245701 50.006985 55.950928 52.885952 57 57M 29.5 41.5C 29.5 43.985283 31.514719 46 34 46C 36.485283 46 38.5 43.985283 38.5 41.5C 38.5 39.014717 36.485283 37 34 37C 31.514719 37 29.5 39.014717 29.5 41.5ZM 41.830002 52.386002C 40.154522 49.669983 37.191231 48.016228 34 48.016228C 30.808767 48.016228 27.845474 49.669983 26.17 52.385998M 25 11L 22 14M 22 11L 25 14M 45 13L 42 16M 42 13L 45 16M 55 21L 52 24M 52 21L 55 24M 16 18L 13 21M 13 18L 16 21M 40.68 32.056C 42.285118 28.043875 45.306801 24.760302 49.172001 22.827999M 28 14L 28.788 14.4C 33.292236 16.650915 36.373741 21.003746 37 26L 37 26M 20 20L 20 20C 26.209766 21.241394 31.321966 25.632595 33.486 31.584L 34 33"></path></g></g></g><g id="g-root-tx_atraircl_8ydn3c1ccdn2k-stroke" data-item-order="0" transform="translate(578, 254)"></g><g id="g-root-tx_semimpul_zlx4x41ccdp8n-stroke" data-item-order="0" transform="translate(38, 314)"></g><g id="g-root-ic_2_245rc1cc2h37-stroke" data-item-order="0" transform="translate(194, 332)"><g id="ic_2_245rc1cc2h37-stroke" fill="none" stroke-linecap="round" stroke-linejoin="round" stroke-miterlimit="4" stroke="#a6da37" stroke-width="2"><g><path d="M 28 10.747L 28 40.746998M 37 17.497L 28 10.747L 19 17.497M 22 45.246998L 34 45.246998M 22 40.746998L 34 40.746998"></path></g></g></g></g></g></svg>